<svg xmlns="http://www.w3.org/2000/svg" xmlns:xlink="http://www.w3.org/1999/xlink" width="110" height="86" version="1.1" viewBox="0 0 110 86"><g fill="none" fill-rule="evenodd" stroke="none" stroke-width="1"><g fill-rule="nonzero"><circle cx="67" cy="43" r="42.065" fill="#FFF" stroke="#E3EAF5" stroke-width="1.871"/><circle cx="43" cy="43" r="43" fill="#4dd4d4"/><path fill="#FFF" d="M66,24 L66,62 L21,62 L21,24 L66,24 Z M62.5385,36.4341 L24.4615,36.4341 L24.4615,58.5455 L62.5385,58.5455 L62.5385,36.4341 Z M38.8154,39.8702 L41.2615,42.3137 L35.9596,47.6061 L41.2638,52.8984 L38.8154,55.3419 L31.0638,47.6061 L38.8142,39.8702 L38.8154,39.8702 Z M49.3385,39.8702 L57.0912,47.6061 L49.3408,55.3419 L46.8923,52.8984 L52.1954,47.6061 L46.8912,42.3137 L49.3396,39.8702 L49.3385,39.8702 Z M62.5385,27.4545 L24.4615,27.4545 L24.4615,32.9795 L62.5385,32.9795 L62.5385,27.4545 Z"/></g></g></svg>